M48
; DRILL file {KiCad 7.0.5} date Mon Jul 24 16:57:59 2023
; FORMAT={-:-/ absolute / inch / decimal}
; #@! TF.CreationDate,2023-07-24T16:57:59+02:00
; #@! TF.GenerationSoftware,Kicad,Pcbnew,7.0.5
; #@! TF.FileFunction,Plated,1,2,PTH
FMAT,2
INCH
; #@! TA.AperFunction,Plated,PTH,ViaDrill
T1C0.0157
; #@! TA.AperFunction,Plated,PTH,ComponentDrill
T2C0.0276
; #@! TA.AperFunction,Plated,PTH,ComponentDrill
T3C0.0394
; #@! TA.AperFunction,Plated,PTH,ComponentDrill
T4C0.0402
%
G90
G05
T1
X4.4495Y-3.2706
T2
X4.265Y-4.265
X4.365Y-4.165
X4.365Y-4.365
X4.585Y-4.265
X4.685Y-4.165
X4.685Y-4.365
T3
X4.29Y-4.56
X4.29Y-4.74
X4.29Y-4.92
X4.39Y-4.56
X4.39Y-4.74
X4.39Y-4.92
X4.49Y-4.56
X4.49Y-4.74
X4.49Y-4.92
X4.59Y-4.56
X4.59Y-4.74
X4.59Y-4.92
X4.77Y-4.56
X4.77Y-4.66
X4.77Y-4.76
X4.7948Y-4.92
X4.8948Y-4.92
X4.915Y-4.1606
X4.915Y-4.2606
X4.915Y-4.3606
X4.915Y-4.56
X4.915Y-4.66
X4.915Y-4.76
T4
X4.295Y-3.3
X4.295Y-3.4
X4.295Y-3.5
X4.295Y-3.6
X4.295Y-3.7
X4.295Y-3.8
X4.295Y-3.9
X4.895Y-3.3
X4.895Y-3.4
X4.895Y-3.5
X4.895Y-3.6
X4.895Y-3.7
X4.895Y-3.8
X4.895Y-3.9
T0
M30
