%TF.GenerationSoftware,KiCad,Pcbnew,7.0.5*%
%TF.CreationDate,2023-07-24T16:57:52+02:00*%
%TF.ProjectId,f1rc,66317263-2e6b-4696-9361-645f70636258,rev?*%
%TF.SameCoordinates,Original*%
%TF.FileFunction,Legend,Top*%
%TF.FilePolarity,Positive*%
%FSLAX46Y46*%
G04 Gerber Fmt 4.6, Leading zero omitted, Abs format (unit mm)*
G04 Created by KiCad (PCBNEW 7.0.5) date 2023-07-24 16:57:52*
%MOMM*%
%LPD*%
G01*
G04 APERTURE LIST*
%ADD10C,0.150000*%
%ADD11C,0.152400*%
%ADD12C,0.120000*%
%ADD13C,0.127000*%
%ADD14C,0.200000*%
%ADD15C,0.381000*%
%ADD16R,1.400000X1.400000*%
%ADD17C,1.400000*%
G04 APERTURE END LIST*
D10*
%TO.C,J4*%
X120824666Y-112915419D02*
X120824666Y-113629704D01*
X120824666Y-113629704D02*
X120777047Y-113772561D01*
X120777047Y-113772561D02*
X120681809Y-113867800D01*
X120681809Y-113867800D02*
X120538952Y-113915419D01*
X120538952Y-113915419D02*
X120443714Y-113915419D01*
X121729428Y-113248752D02*
X121729428Y-113915419D01*
X121491333Y-112867800D02*
X121253238Y-113582085D01*
X121253238Y-113582085D02*
X121872285Y-113582085D01*
%TO.C,U1*%
X109976095Y-77759819D02*
X109976095Y-78569342D01*
X109976095Y-78569342D02*
X110023714Y-78664580D01*
X110023714Y-78664580D02*
X110071333Y-78712200D01*
X110071333Y-78712200D02*
X110166571Y-78759819D01*
X110166571Y-78759819D02*
X110357047Y-78759819D01*
X110357047Y-78759819D02*
X110452285Y-78712200D01*
X110452285Y-78712200D02*
X110499904Y-78664580D01*
X110499904Y-78664580D02*
X110547523Y-78569342D01*
X110547523Y-78569342D02*
X110547523Y-77759819D01*
X111547523Y-78759819D02*
X110976095Y-78759819D01*
X111261809Y-78759819D02*
X111261809Y-77759819D01*
X111261809Y-77759819D02*
X111166571Y-77902676D01*
X111166571Y-77902676D02*
X111071333Y-77997914D01*
X111071333Y-77997914D02*
X110976095Y-78045533D01*
%TO.C,J3*%
X106090819Y-120729333D02*
X106805104Y-120729333D01*
X106805104Y-120729333D02*
X106947961Y-120776952D01*
X106947961Y-120776952D02*
X107043200Y-120872190D01*
X107043200Y-120872190D02*
X107090819Y-121015047D01*
X107090819Y-121015047D02*
X107090819Y-121110285D01*
X106090819Y-120348380D02*
X106090819Y-119729333D01*
X106090819Y-119729333D02*
X106471771Y-120062666D01*
X106471771Y-120062666D02*
X106471771Y-119919809D01*
X106471771Y-119919809D02*
X106519390Y-119824571D01*
X106519390Y-119824571D02*
X106567009Y-119776952D01*
X106567009Y-119776952D02*
X106662247Y-119729333D01*
X106662247Y-119729333D02*
X106900342Y-119729333D01*
X106900342Y-119729333D02*
X106995580Y-119776952D01*
X106995580Y-119776952D02*
X107043200Y-119824571D01*
X107043200Y-119824571D02*
X107090819Y-119919809D01*
X107090819Y-119919809D02*
X107090819Y-120205523D01*
X107090819Y-120205523D02*
X107043200Y-120300761D01*
X107043200Y-120300761D02*
X106995580Y-120348380D01*
%TO.C,J7*%
X106090819Y-125301333D02*
X106805104Y-125301333D01*
X106805104Y-125301333D02*
X106947961Y-125348952D01*
X106947961Y-125348952D02*
X107043200Y-125444190D01*
X107043200Y-125444190D02*
X107090819Y-125587047D01*
X107090819Y-125587047D02*
X107090819Y-125682285D01*
X106090819Y-124920380D02*
X106090819Y-124253714D01*
X106090819Y-124253714D02*
X107090819Y-124682285D01*
%TO.C,J5*%
X124507666Y-112948819D02*
X124507666Y-113663104D01*
X124507666Y-113663104D02*
X124460047Y-113805961D01*
X124460047Y-113805961D02*
X124364809Y-113901200D01*
X124364809Y-113901200D02*
X124221952Y-113948819D01*
X124221952Y-113948819D02*
X124126714Y-113948819D01*
X125460047Y-112948819D02*
X124983857Y-112948819D01*
X124983857Y-112948819D02*
X124936238Y-113425009D01*
X124936238Y-113425009D02*
X124983857Y-113377390D01*
X124983857Y-113377390D02*
X125079095Y-113329771D01*
X125079095Y-113329771D02*
X125317190Y-113329771D01*
X125317190Y-113329771D02*
X125412428Y-113377390D01*
X125412428Y-113377390D02*
X125460047Y-113425009D01*
X125460047Y-113425009D02*
X125507666Y-113520247D01*
X125507666Y-113520247D02*
X125507666Y-113758342D01*
X125507666Y-113758342D02*
X125460047Y-113853580D01*
X125460047Y-113853580D02*
X125412428Y-113901200D01*
X125412428Y-113901200D02*
X125317190Y-113948819D01*
X125317190Y-113948819D02*
X125079095Y-113948819D01*
X125079095Y-113948819D02*
X124983857Y-113901200D01*
X124983857Y-113901200D02*
X124936238Y-113853580D01*
%TO.C,J2*%
X118912819Y-125047333D02*
X119627104Y-125047333D01*
X119627104Y-125047333D02*
X119769961Y-125094952D01*
X119769961Y-125094952D02*
X119865200Y-125190190D01*
X119865200Y-125190190D02*
X119912819Y-125333047D01*
X119912819Y-125333047D02*
X119912819Y-125428285D01*
X119008057Y-124618761D02*
X118960438Y-124571142D01*
X118960438Y-124571142D02*
X118912819Y-124475904D01*
X118912819Y-124475904D02*
X118912819Y-124237809D01*
X118912819Y-124237809D02*
X118960438Y-124142571D01*
X118960438Y-124142571D02*
X119008057Y-124094952D01*
X119008057Y-124094952D02*
X119103295Y-124047333D01*
X119103295Y-124047333D02*
X119198533Y-124047333D01*
X119198533Y-124047333D02*
X119341390Y-124094952D01*
X119341390Y-124094952D02*
X119912819Y-124666380D01*
X119912819Y-124666380D02*
X119912819Y-124047333D01*
D11*
%TO.C,RV2*%
X122899590Y-108911570D02*
X122536733Y-109165570D01*
X122899590Y-109346999D02*
X122137590Y-109346999D01*
X122137590Y-109346999D02*
X122137590Y-109056713D01*
X122137590Y-109056713D02*
X122173876Y-108984142D01*
X122173876Y-108984142D02*
X122210162Y-108947856D01*
X122210162Y-108947856D02*
X122282733Y-108911570D01*
X122282733Y-108911570D02*
X122391590Y-108911570D01*
X122391590Y-108911570D02*
X122464162Y-108947856D01*
X122464162Y-108947856D02*
X122500447Y-108984142D01*
X122500447Y-108984142D02*
X122536733Y-109056713D01*
X122536733Y-109056713D02*
X122536733Y-109346999D01*
X122137590Y-108693856D02*
X122899590Y-108439856D01*
X122899590Y-108439856D02*
X122137590Y-108185856D01*
X122210162Y-107968142D02*
X122173876Y-107931856D01*
X122173876Y-107931856D02*
X122137590Y-107859285D01*
X122137590Y-107859285D02*
X122137590Y-107677856D01*
X122137590Y-107677856D02*
X122173876Y-107605285D01*
X122173876Y-107605285D02*
X122210162Y-107568999D01*
X122210162Y-107568999D02*
X122282733Y-107532713D01*
X122282733Y-107532713D02*
X122355305Y-107532713D01*
X122355305Y-107532713D02*
X122464162Y-107568999D01*
X122464162Y-107568999D02*
X122899590Y-108004427D01*
X122899590Y-108004427D02*
X122899590Y-107532713D01*
D10*
%TO.C,J1*%
X124507666Y-102803819D02*
X124507666Y-103518104D01*
X124507666Y-103518104D02*
X124460047Y-103660961D01*
X124460047Y-103660961D02*
X124364809Y-103756200D01*
X124364809Y-103756200D02*
X124221952Y-103803819D01*
X124221952Y-103803819D02*
X124126714Y-103803819D01*
X125507666Y-103803819D02*
X124936238Y-103803819D01*
X125221952Y-103803819D02*
X125221952Y-102803819D01*
X125221952Y-102803819D02*
X125126714Y-102946676D01*
X125126714Y-102946676D02*
X125031476Y-103041914D01*
X125031476Y-103041914D02*
X124936238Y-103089533D01*
%TO.C,J6*%
X106090819Y-116157333D02*
X106805104Y-116157333D01*
X106805104Y-116157333D02*
X106947961Y-116204952D01*
X106947961Y-116204952D02*
X107043200Y-116300190D01*
X107043200Y-116300190D02*
X107090819Y-116443047D01*
X107090819Y-116443047D02*
X107090819Y-116538285D01*
X106090819Y-115252571D02*
X106090819Y-115443047D01*
X106090819Y-115443047D02*
X106138438Y-115538285D01*
X106138438Y-115538285D02*
X106186057Y-115585904D01*
X106186057Y-115585904D02*
X106328914Y-115681142D01*
X106328914Y-115681142D02*
X106519390Y-115728761D01*
X106519390Y-115728761D02*
X106900342Y-115728761D01*
X106900342Y-115728761D02*
X106995580Y-115681142D01*
X106995580Y-115681142D02*
X107043200Y-115633523D01*
X107043200Y-115633523D02*
X107090819Y-115538285D01*
X107090819Y-115538285D02*
X107090819Y-115347809D01*
X107090819Y-115347809D02*
X107043200Y-115252571D01*
X107043200Y-115252571D02*
X106995580Y-115204952D01*
X106995580Y-115204952D02*
X106900342Y-115157333D01*
X106900342Y-115157333D02*
X106662247Y-115157333D01*
X106662247Y-115157333D02*
X106567009Y-115204952D01*
X106567009Y-115204952D02*
X106519390Y-115252571D01*
X106519390Y-115252571D02*
X106471771Y-115347809D01*
X106471771Y-115347809D02*
X106471771Y-115538285D01*
X106471771Y-115538285D02*
X106519390Y-115633523D01*
X106519390Y-115633523D02*
X106567009Y-115681142D01*
X106567009Y-115681142D02*
X106662247Y-115728761D01*
%TO.C,U2*%
X115697095Y-81695819D02*
X115697095Y-82505342D01*
X115697095Y-82505342D02*
X115744714Y-82600580D01*
X115744714Y-82600580D02*
X115792333Y-82648200D01*
X115792333Y-82648200D02*
X115887571Y-82695819D01*
X115887571Y-82695819D02*
X116078047Y-82695819D01*
X116078047Y-82695819D02*
X116173285Y-82648200D01*
X116173285Y-82648200D02*
X116220904Y-82600580D01*
X116220904Y-82600580D02*
X116268523Y-82505342D01*
X116268523Y-82505342D02*
X116268523Y-81695819D01*
X116697095Y-81791057D02*
X116744714Y-81743438D01*
X116744714Y-81743438D02*
X116839952Y-81695819D01*
X116839952Y-81695819D02*
X117078047Y-81695819D01*
X117078047Y-81695819D02*
X117173285Y-81743438D01*
X117173285Y-81743438D02*
X117220904Y-81791057D01*
X117220904Y-81791057D02*
X117268523Y-81886295D01*
X117268523Y-81886295D02*
X117268523Y-81981533D01*
X117268523Y-81981533D02*
X117220904Y-82124390D01*
X117220904Y-82124390D02*
X116649476Y-82695819D01*
X116649476Y-82695819D02*
X117268523Y-82695819D01*
D11*
%TO.C,RV1*%
X114771590Y-108911570D02*
X114408733Y-109165570D01*
X114771590Y-109346999D02*
X114009590Y-109346999D01*
X114009590Y-109346999D02*
X114009590Y-109056713D01*
X114009590Y-109056713D02*
X114045876Y-108984142D01*
X114045876Y-108984142D02*
X114082162Y-108947856D01*
X114082162Y-108947856D02*
X114154733Y-108911570D01*
X114154733Y-108911570D02*
X114263590Y-108911570D01*
X114263590Y-108911570D02*
X114336162Y-108947856D01*
X114336162Y-108947856D02*
X114372447Y-108984142D01*
X114372447Y-108984142D02*
X114408733Y-109056713D01*
X114408733Y-109056713D02*
X114408733Y-109346999D01*
X114009590Y-108693856D02*
X114771590Y-108439856D01*
X114771590Y-108439856D02*
X114009590Y-108185856D01*
X114771590Y-107532713D02*
X114771590Y-107968142D01*
X114771590Y-107750427D02*
X114009590Y-107750427D01*
X114009590Y-107750427D02*
X114118447Y-107822999D01*
X114118447Y-107822999D02*
X114191019Y-107895570D01*
X114191019Y-107895570D02*
X114227305Y-107968142D01*
D12*
%TO.C,J4*%
X119828000Y-114494000D02*
X121158000Y-114494000D01*
X119828000Y-115824000D02*
X119828000Y-114494000D01*
X119828000Y-117094000D02*
X119828000Y-122234000D01*
X119828000Y-117094000D02*
X122488000Y-117094000D01*
X119828000Y-122234000D02*
X122488000Y-122234000D01*
X122488000Y-117094000D02*
X122488000Y-122234000D01*
D13*
%TO.C,U1*%
X107813000Y-80940000D02*
X107813000Y-101940000D01*
X107813000Y-101940000D02*
X125613000Y-101940000D01*
X125613000Y-80940000D02*
X107813000Y-80940000D01*
X125613000Y-101940000D02*
X125613000Y-80940000D01*
D14*
X107113000Y-83820000D02*
G75*
G03*
X107113000Y-83820000I-100000J0D01*
G01*
D12*
%TO.C,J3*%
X107636000Y-121726000D02*
X107636000Y-120396000D01*
X108966000Y-121726000D02*
X107636000Y-121726000D01*
X110236000Y-121726000D02*
X117916000Y-121726000D01*
X110236000Y-121726000D02*
X110236000Y-119066000D01*
X117916000Y-121726000D02*
X117916000Y-119066000D01*
X110236000Y-119066000D02*
X117916000Y-119066000D01*
%TO.C,J7*%
X107636000Y-126298000D02*
X107636000Y-124968000D01*
X108966000Y-126298000D02*
X107636000Y-126298000D01*
X110236000Y-126298000D02*
X117916000Y-126298000D01*
X110236000Y-126298000D02*
X110236000Y-123638000D01*
X117916000Y-126298000D02*
X117916000Y-123638000D01*
X110236000Y-123638000D02*
X117916000Y-123638000D01*
%TO.C,J5*%
X123511000Y-114494000D02*
X124841000Y-114494000D01*
X123511000Y-115824000D02*
X123511000Y-114494000D01*
X123511000Y-117094000D02*
X123511000Y-122234000D01*
X123511000Y-117094000D02*
X126171000Y-117094000D01*
X123511000Y-122234000D02*
X126171000Y-122234000D01*
X126171000Y-117094000D02*
X126171000Y-122234000D01*
%TO.C,J2*%
X120458000Y-126298000D02*
X120458000Y-124968000D01*
X121788000Y-126298000D02*
X120458000Y-126298000D01*
X123058000Y-126298000D02*
X125658000Y-126298000D01*
X123058000Y-126298000D02*
X123058000Y-123638000D01*
X125658000Y-126298000D02*
X125658000Y-123638000D01*
X123058000Y-123638000D02*
X125658000Y-123638000D01*
D15*
%TO.C,RV2*%
X115499000Y-111831000D02*
X115499000Y-104831000D01*
X120499000Y-111831000D02*
X115499000Y-111831000D01*
X120499000Y-111831000D02*
X122499000Y-109831000D01*
X122499000Y-109831000D02*
X122499000Y-104831000D01*
X115499000Y-104831000D02*
X122499000Y-104831000D01*
X122499000Y-111331000D02*
G75*
G03*
X122499000Y-111331000I-500000J0D01*
G01*
D12*
%TO.C,J1*%
X123511000Y-104349000D02*
X124841000Y-104349000D01*
X123511000Y-105679000D02*
X123511000Y-104349000D01*
X123511000Y-106949000D02*
X123511000Y-112089000D01*
X123511000Y-106949000D02*
X126171000Y-106949000D01*
X123511000Y-112089000D02*
X126171000Y-112089000D01*
X126171000Y-106949000D02*
X126171000Y-112089000D01*
%TO.C,J6*%
X107636000Y-117154000D02*
X107636000Y-115824000D01*
X108966000Y-117154000D02*
X107636000Y-117154000D01*
X110236000Y-117154000D02*
X117916000Y-117154000D01*
X110236000Y-117154000D02*
X110236000Y-114494000D01*
X117916000Y-117154000D02*
X117916000Y-114494000D01*
X110236000Y-114494000D02*
X117916000Y-114494000D01*
%TO.C,U2*%
X112359000Y-83331000D02*
X118369000Y-83331000D01*
X114609000Y-90151000D02*
X118369000Y-90151000D01*
X118369000Y-83331000D02*
X118369000Y-84591000D01*
X118369000Y-90151000D02*
X118369000Y-88891000D01*
D15*
%TO.C,RV1*%
X107371000Y-111831000D02*
X107371000Y-104831000D01*
X112371000Y-111831000D02*
X107371000Y-111831000D01*
X112371000Y-111831000D02*
X114371000Y-109831000D01*
X114371000Y-109831000D02*
X114371000Y-104831000D01*
X107371000Y-104831000D02*
X114371000Y-104831000D01*
X114371000Y-111331000D02*
G75*
G03*
X114371000Y-111331000I-500000J0D01*
G01*
%TD*%
D16*
%TO.C,RV2*%
X118999000Y-110871000D03*
D17*
X116459000Y-108331000D03*
X118999000Y-105791000D03*
%TD*%
D16*
%TO.C,RV1*%
X110871000Y-110871000D03*
D17*
X108331000Y-108331000D03*
X110871000Y-105791000D03*
%TD*%
M02*
