%TF.GenerationSoftware,KiCad,Pcbnew,7.0.5*%
%TF.CreationDate,2023-07-24T16:57:52+02:00*%
%TF.ProjectId,f1rc,66317263-2e6b-4696-9361-645f70636258,rev?*%
%TF.SameCoordinates,Original*%
%TF.FileFunction,Copper,L1,Top*%
%TF.FilePolarity,Positive*%
%FSLAX46Y46*%
G04 Gerber Fmt 4.6, Leading zero omitted, Abs format (unit mm)*
G04 Created by KiCad (PCBNEW 7.0.5) date 2023-07-24 16:57:52*
%MOMM*%
%LPD*%
G01*
G04 APERTURE LIST*
%TA.AperFunction,ComponentPad*%
%ADD10R,1.700000X1.700000*%
%TD*%
%TA.AperFunction,ComponentPad*%
%ADD11O,1.700000X1.700000*%
%TD*%
%TA.AperFunction,ComponentPad*%
%ADD12R,1.530000X1.530000*%
%TD*%
%TA.AperFunction,ComponentPad*%
%ADD13C,1.530000*%
%TD*%
%TA.AperFunction,ComponentPad*%
%ADD14R,1.400000X1.400000*%
%TD*%
%TA.AperFunction,ComponentPad*%
%ADD15C,1.400000*%
%TD*%
%TA.AperFunction,SMDPad,CuDef*%
%ADD16R,2.000000X1.500000*%
%TD*%
%TA.AperFunction,SMDPad,CuDef*%
%ADD17R,2.000000X3.800000*%
%TD*%
%TA.AperFunction,ViaPad*%
%ADD18C,0.800000*%
%TD*%
%TA.AperFunction,Conductor*%
%ADD19C,0.250000*%
%TD*%
G04 APERTURE END LIST*
D10*
%TO.P,J4,1,Pin_1*%
%TO.N,Net-(J4-Pin_1)*%
X121158000Y-115824000D03*
D11*
%TO.P,J4,2,Pin_2*%
%TO.N,Net-(J4-Pin_2)*%
X121158000Y-118364000D03*
%TO.P,J4,3,Pin_3*%
%TO.N,GND*%
X121158000Y-120904000D03*
%TD*%
D12*
%TO.P,U1,1,PA02_A0_D0*%
%TO.N,Net-(U1-PA02_A0_D0)*%
X109093000Y-83820000D03*
D13*
%TO.P,U1,2,PA4_A1_D1*%
%TO.N,Net-(U1-PA4_A1_D1)*%
X109093000Y-86360000D03*
%TO.P,U1,3,PA10_A2_D2*%
%TO.N,Net-(J4-Pin_1)*%
X109093000Y-88900000D03*
%TO.P,U1,4,PA11_A3_D3*%
%TO.N,unconnected-(U1-PA11_A3_D3-Pad4)*%
X109093000Y-91440000D03*
%TO.P,U1,5,PA8_A4_D4_SDA*%
%TO.N,unconnected-(U1-PA8_A4_D4_SDA-Pad5)*%
X109093000Y-93980000D03*
%TO.P,U1,6,PA9_A5_D5_SCL*%
%TO.N,Net-(J6-Pin_4)*%
X109093000Y-96520000D03*
%TO.P,U1,7,PB08_A6_D6_TX*%
%TO.N,Net-(J3-Pin_4)*%
X109093000Y-99060000D03*
%TO.P,U1,8,PB09_A7_D7_RX*%
%TO.N,Net-(J3-Pin_3)*%
X124333000Y-99060000D03*
%TO.P,U1,9,PA7_A8_D8_SCK*%
%TO.N,Net-(J6-Pin_3)*%
X124333000Y-96520000D03*
%TO.P,U1,10,PA5_A9_D9_MISO*%
%TO.N,unconnected-(U1-PA5_A9_D9_MISO-Pad10)*%
X124333000Y-93980000D03*
%TO.P,U1,11,PA6_A10_D10_MOSI*%
%TO.N,Net-(J2-Pin_1)*%
X124333000Y-91440000D03*
%TO.P,U1,12,3V3*%
%TO.N,unconnected-(U1-3V3-Pad12)*%
X124333000Y-88900000D03*
%TO.P,U1,13,GND*%
%TO.N,GND*%
X124333000Y-86360000D03*
%TO.P,U1,14,5V*%
%TO.N,Net-(U1-5V)*%
X124333000Y-83820000D03*
%TD*%
D10*
%TO.P,J3,1,Pin_1*%
%TO.N,+8V*%
X108966000Y-120396000D03*
D11*
%TO.P,J3,2,Pin_2*%
%TO.N,GND*%
X111506000Y-120396000D03*
%TO.P,J3,3,Pin_3*%
%TO.N,Net-(J3-Pin_3)*%
X114046000Y-120396000D03*
%TO.P,J3,4,Pin_4*%
%TO.N,Net-(J3-Pin_4)*%
X116586000Y-120396000D03*
%TD*%
D10*
%TO.P,J7,1,Pin_1*%
%TO.N,+8V*%
X108966000Y-124968000D03*
D11*
%TO.P,J7,2,Pin_2*%
%TO.N,GND*%
X111506000Y-124968000D03*
%TO.P,J7,3,Pin_3*%
%TO.N,Net-(J6-Pin_3)*%
X114046000Y-124968000D03*
%TO.P,J7,4,Pin_4*%
%TO.N,Net-(J6-Pin_4)*%
X116586000Y-124968000D03*
%TD*%
D10*
%TO.P,J5,1,Pin_1*%
%TO.N,Net-(J4-Pin_1)*%
X124841000Y-115824000D03*
D11*
%TO.P,J5,2,Pin_2*%
%TO.N,Net-(J4-Pin_2)*%
X124841000Y-118364000D03*
%TO.P,J5,3,Pin_3*%
%TO.N,GND*%
X124841000Y-120904000D03*
%TD*%
D10*
%TO.P,J2,1,Pin_1*%
%TO.N,Net-(J2-Pin_1)*%
X121788000Y-124968000D03*
D11*
%TO.P,J2,2,Pin_2*%
%TO.N,GND*%
X124328000Y-124968000D03*
%TD*%
D14*
%TO.P,RV2,1,1*%
%TO.N,Net-(J1-Pin_2)*%
X118999000Y-110871000D03*
D15*
%TO.P,RV2,2,2*%
%TO.N,Net-(U1-PA4_A1_D1)*%
X116459000Y-108331000D03*
%TO.P,RV2,3,3*%
%TO.N,GND*%
X118999000Y-105791000D03*
%TD*%
D10*
%TO.P,J1,1,Pin_1*%
%TO.N,+8V*%
X124841000Y-105679000D03*
D11*
%TO.P,J1,2,Pin_2*%
%TO.N,Net-(J1-Pin_2)*%
X124841000Y-108219000D03*
%TO.P,J1,3,Pin_3*%
%TO.N,GND*%
X124841000Y-110759000D03*
%TD*%
D10*
%TO.P,J6,1,Pin_1*%
%TO.N,+8V*%
X108966000Y-115824000D03*
D11*
%TO.P,J6,2,Pin_2*%
%TO.N,GND*%
X111506000Y-115824000D03*
%TO.P,J6,3,Pin_3*%
%TO.N,Net-(J6-Pin_3)*%
X114046000Y-115824000D03*
%TO.P,J6,4,Pin_4*%
%TO.N,Net-(J6-Pin_4)*%
X116586000Y-115824000D03*
%TD*%
D16*
%TO.P,U2,1,GND*%
%TO.N,GND*%
X113309000Y-84441000D03*
%TO.P,U2,2,VO*%
%TO.N,Net-(U1-5V)*%
X113309000Y-86741000D03*
D17*
X119609000Y-86741000D03*
D16*
%TO.P,U2,3,VI*%
%TO.N,+8V*%
X113309000Y-89041000D03*
%TD*%
D14*
%TO.P,RV1,1,1*%
%TO.N,+8V*%
X110871000Y-110871000D03*
D15*
%TO.P,RV1,2,2*%
%TO.N,Net-(U1-PA02_A0_D0)*%
X108331000Y-108331000D03*
%TO.P,RV1,3,3*%
%TO.N,Net-(J1-Pin_2)*%
X110871000Y-105791000D03*
%TD*%
D18*
%TO.N,GND*%
X113018200Y-83073300D03*
%TD*%
D19*
%TO.N,+8V*%
X108966000Y-115824000D02*
X108966000Y-120396000D01*
X108966000Y-120396000D02*
X108966000Y-124968000D01*
X115007950Y-94669050D02*
X121553900Y-101215000D01*
X113309000Y-89041000D02*
X113309000Y-92970100D01*
X115007950Y-107760950D02*
X115007950Y-94669050D01*
X124841000Y-105679000D02*
X124841000Y-104502100D01*
X110871000Y-110871000D02*
X111897900Y-110871000D01*
X111897900Y-110871000D02*
X115007950Y-107760950D01*
X121553900Y-101215000D02*
X124841000Y-104502100D01*
X113309000Y-92970100D02*
X115007950Y-94669050D01*
%TO.N,GND*%
X113309000Y-84441000D02*
X113309000Y-83364100D01*
X113309000Y-83364100D02*
X113018200Y-83073300D01*
%TO.N,Net-(U1-PA02_A0_D0)*%
X108331000Y-108331000D02*
X108001100Y-108001100D01*
X108001100Y-108001100D02*
X108001100Y-85867200D01*
X108956400Y-84911900D02*
X109093000Y-84911900D01*
X108001100Y-85867200D02*
X108956400Y-84911900D01*
X109093000Y-83820000D02*
X109093000Y-84911900D01*
%TO.N,Net-(J4-Pin_1)*%
X110671300Y-90478300D02*
X109093000Y-88900000D01*
X110166300Y-112054200D02*
X109822500Y-111710400D01*
X110671300Y-104367200D02*
X110671300Y-90478300D01*
X116211300Y-112054200D02*
X110166300Y-112054200D01*
X109822500Y-111710400D02*
X109822500Y-105216000D01*
X124841000Y-115824000D02*
X121158000Y-115824000D01*
X119981100Y-115824000D02*
X116211300Y-112054200D01*
X121158000Y-115824000D02*
X119981100Y-115824000D01*
X109822500Y-105216000D02*
X110671300Y-104367200D01*
%TO.N,Net-(J4-Pin_2)*%
X124841000Y-118364000D02*
X121158000Y-118364000D01*
%TO.N,Net-(J1-Pin_2)*%
X124841000Y-108219000D02*
X123664100Y-108219000D01*
X118999000Y-110871000D02*
X121012100Y-110871000D01*
X121012100Y-110871000D02*
X123664100Y-108219000D01*
%TO.N,Net-(U1-5V)*%
X123638900Y-84514100D02*
X124333000Y-83820000D01*
X115535900Y-84514100D02*
X119609000Y-84514100D01*
X119609000Y-86741000D02*
X119609000Y-84514100D01*
X113309000Y-86741000D02*
X113309000Y-85664100D01*
X119609000Y-84514100D02*
X123638900Y-84514100D01*
X119609000Y-86741000D02*
X119609000Y-84514100D01*
X114385900Y-85664100D02*
X115535900Y-84514100D01*
X113309000Y-85664100D02*
X114385900Y-85664100D01*
%TO.N,Net-(J6-Pin_3)*%
X112855400Y-118191500D02*
X112855400Y-122600500D01*
X114046000Y-124968000D02*
X114046000Y-123791100D01*
X114046000Y-115824000D02*
X114046000Y-117000900D01*
X112855400Y-122600500D02*
X114046000Y-123791100D01*
X114046000Y-117000900D02*
X112855400Y-118191500D01*
%TO.N,Net-(J6-Pin_4)*%
X115409100Y-122614200D02*
X116586000Y-123791100D01*
X109370600Y-111897600D02*
X110138200Y-112665200D01*
X109093000Y-96520000D02*
X110184900Y-97611900D01*
X116586000Y-124968000D02*
X116586000Y-123791100D01*
X112618200Y-112665200D02*
X115409100Y-115456100D01*
X110138200Y-112665200D02*
X112618200Y-112665200D01*
X115409100Y-115456100D02*
X115409100Y-115824000D01*
X115409100Y-115824000D02*
X115409100Y-122614200D01*
X110184900Y-103746700D02*
X109370600Y-104561000D01*
X116586000Y-115824000D02*
X115409100Y-115824000D01*
X109370600Y-104561000D02*
X109370600Y-111897600D01*
X110184900Y-97611900D02*
X110184900Y-103746700D01*
%TD*%
M02*
